<svg width="24" height="24" viewBox="0 0 24 24" fill="none" xmlns="http://www.w3.org/2000/svg">
<path d="M9.55399 6.75C9.55399 5.1587 10.1861 3.63258 11.3113 2.50736C12.4366 1.38214 13.9627 0.75 15.554 0.75C17.1453 0.75 18.6714 1.38214 19.7966 2.50736C20.9218 3.63258 21.554 5.1587 21.554 6.75V23.25" stroke="#9292A0" stroke-width="1.5" stroke-linecap="round" stroke-linejoin="round"/>
<path d="M5.05399 11.25C5.05399 10.0565 5.52809 8.91193 6.372 8.06802C7.21592 7.22411 8.36051 6.75 9.55399 6.75C10.7475 6.75 11.8921 7.22411 12.736 8.06802C13.5799 8.91193 14.054 10.0565 14.054 11.25H5.05399Z" stroke="#9292A0" stroke-width="1.5" stroke-linecap="round" stroke-linejoin="round"/>
<path d="M9.55399 15C9.62815 15 9.70066 15.022 9.76232 15.0632C9.82399 15.1044 9.87206 15.163 9.90044 15.2315C9.92882 15.3 9.93625 15.3754 9.92178 15.4482C9.90731 15.5209 9.8716 15.5877 9.81915 15.6402C9.76671 15.6926 9.69989 15.7283 9.62714 15.7428C9.5544 15.7573 9.479 15.7498 9.41048 15.7215C9.34196 15.6931 9.28339 15.645 9.24218 15.5833C9.20098 15.5217 9.17899 15.4492 9.17899 15.375C9.17899 15.2755 9.21849 15.1802 9.28882 15.1098C9.35915 15.0395 9.45453 15 9.55399 15" stroke="#9292A0" stroke-width="1.5" stroke-linecap="round" stroke-linejoin="round"/>
<path d="M9.55399 21C9.62815 21 9.70066 21.022 9.76232 21.0632C9.82399 21.1044 9.87206 21.163 9.90044 21.2315C9.92882 21.3 9.93625 21.3754 9.92178 21.4482C9.90731 21.5209 9.8716 21.5877 9.81915 21.6402C9.76671 21.6926 9.69989 21.7283 9.62714 21.7428C9.5544 21.7573 9.479 21.7498 9.41048 21.7215C9.34196 21.6931 9.28339 21.645 9.24218 21.5833C9.20098 21.5217 9.17899 21.4492 9.17899 21.375C9.17899 21.2755 9.21849 21.1802 9.28882 21.1098C9.35915 21.0395 9.45453 21 9.55399 21" stroke="#9292A0" stroke-width="1.5" stroke-linecap="round" stroke-linejoin="round"/>
<path d="M13.563 15.019C13.6335 14.9959 13.7093 14.9942 13.7808 15.0142C13.8523 15.0342 13.9162 15.075 13.9645 15.1314C14.0128 15.1877 14.0433 15.2571 14.0521 15.3308C14.0609 15.4045 14.0476 15.4792 14.014 15.5453C13.9803 15.6115 13.9278 15.6662 13.8631 15.7025C13.7984 15.7388 13.7243 15.755 13.6503 15.7492C13.5763 15.7434 13.5057 15.7158 13.4475 15.6698C13.3892 15.6238 13.3459 15.5616 13.323 15.491C13.2924 15.3966 13.3005 15.2939 13.3454 15.2054C13.3904 15.1169 13.4687 15.0499 13.563 15.019" stroke="#9292A0" stroke-width="1.5" stroke-linecap="round" stroke-linejoin="round"/>
<path d="M15.421 20.724C15.4915 20.7009 15.5673 20.6993 15.6388 20.7193C15.7103 20.7393 15.7742 20.78 15.8225 20.8364C15.8708 20.8927 15.9013 20.9622 15.9101 21.0359C15.9189 21.1095 15.9056 21.1842 15.872 21.2504C15.8384 21.3165 15.7858 21.3712 15.7211 21.4075C15.6564 21.4438 15.5823 21.46 15.5083 21.4542C15.4343 21.4484 15.3637 21.4208 15.3055 21.3748C15.2472 21.3288 15.2039 21.2666 15.181 21.196C15.1504 21.1016 15.1585 20.9989 15.2035 20.9104C15.2484 20.8219 15.3267 20.7549 15.421 20.724" stroke="#9292A0" stroke-width="1.5" stroke-linecap="round" stroke-linejoin="round"/>
<path d="M5.54501 15.019C5.47448 14.9959 5.39868 14.9942 5.32721 15.0142C5.25574 15.0342 5.19181 15.075 5.14352 15.1314C5.09523 15.1877 5.06475 15.2571 5.05594 15.3308C5.04712 15.4045 5.06038 15.4792 5.09401 15.5453C5.12765 15.6115 5.18017 15.6662 5.2449 15.7025C5.30964 15.7388 5.38369 15.755 5.45768 15.7492C5.53167 15.7434 5.60227 15.7158 5.66054 15.6698C5.71881 15.6238 5.76213 15.5616 5.78501 15.491C5.81562 15.3966 5.80754 15.2939 5.76255 15.2054C5.71757 15.1169 5.63934 15.0499 5.54501 15.019" stroke="#9292A0" stroke-width="1.5" stroke-linecap="round" stroke-linejoin="round"/>
<path d="M3.68699 20.724C3.61643 20.7011 3.54065 20.6996 3.46926 20.7198C3.39786 20.7399 3.33405 20.7808 3.28589 20.8373C3.23774 20.8937 3.20741 20.9632 3.19874 21.0368C3.19007 21.1105 3.20345 21.1851 3.23718 21.2512C3.27092 21.3173 3.3235 21.3718 3.38827 21.408C3.45303 21.4442 3.52708 21.4604 3.60103 21.4545C3.67499 21.4486 3.74553 21.4208 3.80373 21.3748C3.86193 21.3288 3.90517 21.2666 3.92799 21.196C3.94326 21.1492 3.94913 21.0998 3.94528 21.0507C3.94142 21.0016 3.92791 20.9538 3.90552 20.9099C3.88313 20.8661 3.8523 20.8271 3.8148 20.7952C3.7773 20.7633 3.73386 20.7391 3.68699 20.724" stroke="#9292A0" stroke-width="1.5" stroke-linecap="round" stroke-linejoin="round"/>
</svg>
